<svg width="20" height="20" viewBox="0 0 20 20" fill="none" xmlns="http://www.w3.org/2000/svg">
<path d="M3.37833 2.51335C5.14264 0.951131 7.46301 0.0027504 10.0049 0.0027504C15.5277 0.0027504 20.0049 4.4799 20.0049 10.0027C20.0049 12.1277 19.3421 14.0978 18.212 15.7177L15.5049 10.0027H18.0049C18.0049 5.58447 14.4232 2.00275 10.0049 2.00275C7.76058 2.00275 5.73213 2.92691 4.27932 4.41544L3.37833 2.51335ZM16.6314 17.4921C14.8671 19.0544 12.5468 20.0027 10.0049 20.0027C4.48204 20.0027 0.00488281 15.5256 0.00488281 10.0027C0.00488281 7.8778 0.667673 5.90766 1.79778 4.28776L4.50488 10.0027H2.00488C2.00488 14.421 5.5866 18.0027 10.0049 18.0027C12.2492 18.0027 14.2776 17.0786 15.7304 15.59L16.6314 17.4921ZM6.50488 12.0027H12.0049C12.281 12.0027 12.5049 11.7789 12.5049 11.5027C12.5049 11.2266 12.281 11.0027 12.0049 11.0027H8.0049C6.62417 11.0027 5.50488 9.8835 5.50488 8.5027C5.50488 7.12203 6.62417 6.00275 8.0049 6.00275H9.0049V5.00275H11.0049V6.00275H13.5049V8.0027H8.0049C7.72874 8.0027 7.50488 8.2266 7.50488 8.5027C7.50488 8.7789 7.72874 9.0027 8.0049 9.0027H12.0049C13.3856 9.0027 14.5049 10.122 14.5049 11.5027C14.5049 12.8835 13.3856 14.0027 12.0049 14.0027H11.0049V15.0027H9.0049V14.0027H6.50488V12.0027Z" fill="#E7FFFB"/>
</svg>
